<?xml version="1.0" standalone="no"?>
<!DOCTYPE svg PUBLIC "-//W3C//DTD SVG 20010904//EN"
 "http://www.w3.org/TR/2001/REC-SVG-20010904/DTD/svg10.dtd">
<svg version="1.0" xmlns="http://www.w3.org/2000/svg"
 width="300.000000pt" height="300.000000pt" viewBox="0 0 300.000000 300.000000"
 preserveAspectRatio="xMidYMid meet">
<metadata>
Created by potrace 1.10, written by Peter Selinger 2001-2011
</metadata>
<g transform="translate(0.000000,300.000000) scale(0.100000,-0.100000)"
fill="#000000" stroke="none">
<path d="M0 1500 l0 -1500 1500 0 1500 0 0 1500 0 1500 -1500 0 -1500 0 0
-1500z m1322 180 c37 -12 74 -31 88 -45 17 -18 34 -25 61 -25 39 0 174 -38
166 -46 -3 -3 -27 2 -54 11 -39 14 -98 22 -176 25 -5 0 -5 5 -2 10 3 6 -1 13
-9 16 -9 3 -13 10 -10 15 3 5 -7 4 -22 -1 -23 -9 -25 -9 -15 4 11 13 6 17 -31
26 -62 16 -83 28 -108 64 l-23 31 35 -33 c22 -21 58 -40 100 -52z m-382 62 c0
-4 -8 -12 -18 -18 -13 -9 -18 -26 -20 -68 -1 -37 1 -55 8 -51 5 3 7 0 4 -8 -9
-24 -34 -16 -31 11 1 14 -4 27 -10 29 -9 3 -8 11 3 29 18 27 13 32 -10 8 -18
-18 -22 -69 -5 -58 7 4 9 0 5 -12 -3 -11 -2 -24 2 -30 11 -16 41 -24 47 -14 7
12 75 13 75 2 0 -5 -16 -16 -35 -25 -40 -19 -49 -21 -41 -8 3 5 -1 11 -9 15
-8 3 -18 0 -21 -6 -4 -7 -2 -14 4 -16 21 -7 13 -54 -13 -78 -14 -13 -25 -33
-25 -45 0 -17 5 -20 25 -17 30 6 31 -1 5 -35 -30 -38 -25 -88 6 -57 6 6 10
-36 12 -121 1 -73 5 -135 8 -140 3 -5 64 -9 135 -9 148 0 189 11 214 59 8 17
18 31 20 31 3 0 5 -25 5 -55 l0 -55 -245 0 c-135 0 -245 3 -245 6 0 3 10 14
22 24 20 15 22 27 22 108 1 86 2 91 24 97 28 7 28 16 -3 43 -13 12 -22 28 -19
35 3 8 -15 32 -41 56 -42 38 -59 61 -35 46 6 -3 10 3 10 15 0 12 5 31 12 43
11 21 11 21 19 2 4 -11 8 -33 8 -50 1 -23 -2 -26 -9 -15 -6 10 -12 12 -20 4
-7 -7 1 -21 26 -45 l36 -34 -4 62 c-3 56 -1 62 15 57 22 -7 22 14 1 44 -8 12
-15 44 -16 72 0 47 -9 63 -23 40 -8 -14 -44 -12 -80 4 l-30 13 35 21 c19 12
42 22 50 22 13 0 13 -1 0 -10 -8 -5 -11 -12 -7 -17 15 -14 27 21 12 37 -10 11
-11 20 -4 33 6 9 7 22 4 27 -4 6 22 10 69 10 42 0 76 -3 76 -8z m-175 -15 c18
-14 14 -37 -8 -37 -7 0 -23 7 -36 16 -18 13 -20 18 -10 25 19 12 32 11 54 -4z
m414 -63 c28 -30 51 -60 51 -64 0 -9 51 -26 97 -33 33 -5 40 -17 20 -32 -16
-11 -14 -13 17 -19 77 -15 53 -49 -36 -52 -44 -2 -55 0 -38 6 14 4 39 9 55 9
17 1 37 6 45 12 11 8 5 9 -25 4 -67 -11 -81 -12 -66 -8 12 4 12 6 0 14 -9 5 1
7 26 3 l40 -4 -52 21 c-29 12 -53 26 -53 32 0 7 4 7 12 -1 7 -7 28 -12 47 -12
46 0 33 10 -31 25 -41 9 -64 9 -108 -2 -30 -7 -71 -12 -90 -12 -25 1 -18 4 25
10 84 12 92 20 16 15 -41 -3 -59 -1 -50 5 8 5 42 9 77 9 l63 0 -15 29 c-9 16
-35 45 -58 65 -24 19 -38 36 -32 36 7 0 35 -25 63 -56z m749 16 c42 -19 66
-54 60 -89 -1 -9 2 -23 7 -31 19 -30 -2 -130 -28 -130 -4 0 -1 10 7 22 19 27
21 69 4 87 -10 11 -10 13 0 7 6 -4 12 -2 12 4 0 6 -7 13 -15 16 -8 3 -19 23
-25 43 -12 47 -36 69 -81 76 -29 5 -31 4 -13 -6 12 -6 32 -30 44 -52 13 -23
30 -50 38 -59 8 -10 10 -18 5 -18 -6 0 -17 10 -25 21 -10 16 -27 23 -66 27
-42 4 -54 9 -68 31 l-17 26 25 -22 c13 -13 32 -23 42 -23 13 0 10 6 -13 26
-34 28 -61 26 -61 -5 0 -10 -7 -21 -14 -24 -10 -4 -13 -1 -9 9 8 20 -18 14
-35 -9 -7 -9 -10 -21 -7 -27 3 -5 -1 -22 -9 -38 -8 -15 -17 -44 -21 -64 -6
-33 -4 -40 21 -62 34 -30 49 -33 40 -9 -6 14 -2 12 17 -5 27 -25 51 -28 95 -9
25 10 29 16 20 30 -8 14 -13 16 -24 6 -8 -6 -14 -7 -14 -2 0 5 11 16 25 23 22
12 27 11 44 -4 19 -17 21 -17 47 9 21 21 25 32 20 57 -8 39 1 32 13 -10 8 -26
6 -33 -12 -45 -18 -12 -20 -22 -18 -80 1 -37 -2 -67 -6 -67 -5 0 -7 27 -5 60
4 60 4 60 -19 52 -15 -5 -35 -29 -52 -63 -25 -47 -32 -46 -13 2 6 14 1 16 -38
12 -29 -4 -52 -1 -63 7 -10 7 1 -6 25 -29 52 -52 55 -63 5 -21 -227 191 -273
219 -346 206 -30 -6 -30 -5 -9 6 18 9 37 9 83 -1 85 -17 196 9 183 43 -9 24
48 76 106 96 69 24 85 24 138 0z m-928 7 c0 -2 -17 -19 -37 -38 -21 -18 -34
-30 -30 -25 4 5 2 15 -3 22 -15 16 14 44 46 44 13 0 24 -1 24 -3z m58 -9 c17
-17 15 -49 -4 -76 -19 -28 -39 -30 -24 -2 7 14 7 25 -1 38 -12 20 -7 52 9 52
4 0 13 -5 20 -12z m332 -58 c13 -9 13 -10 0 -10 -8 -1 1 -9 20 -20 l35 -18
-62 3 c-34 2 -70 8 -80 14 -14 8 -7 10 32 6 28 -2 41 -2 30 1 -33 10 -39 22
-8 17 22 -4 25 -2 13 6 -19 13 0 14 20 1z m450 -69 c5 -11 9 -30 9 -43 -2 -22
-2 -22 -6 2 -3 14 -12 33 -20 43 -10 10 -11 17 -5 17 6 0 16 -9 22 -19z
m-1009 -43 c16 -30 0 -36 -22 -9 -10 13 -19 27 -19 32 0 14 30 -2 41 -23z
m969 23 c0 -5 3 -18 7 -28 6 -16 5 -16 -10 -4 -19 15 -23 41 -7 41 6 0 10 -4
10 -9z m-797 -73 c-5 -27 -3 -31 8 -20 16 15 29 16 29 2 0 -5 -7 -10 -15 -10
-9 0 -18 -7 -21 -15 -12 -29 -19 -14 -16 30 2 25 8 45 13 45 5 0 6 -15 2 -32z
m209 11 c31 -16 54 -20 90 -17 26 3 48 1 48 -3 0 -5 -25 -9 -56 -9 -40 0 -67
6 -91 21 -31 19 -41 20 -94 12 -32 -5 -59 -6 -59 -2 0 7 35 14 93 17 15 1 46
-7 69 -19z m948 -3 c0 -2 -13 -3 -29 -2 -22 1 -27 4 -19 13 7 9 16 10 29 2 10
-5 19 -11 19 -13z m-1432 -2 c12 -8 22 -21 22 -27 0 -7 -5 -4 -11 6 -5 9 -15
17 -20 17 -6 0 -7 -5 -3 -11 5 -8 1 -8 -14 0 -34 18 -39 12 -8 -8 25 -17 26
-20 10 -23 -11 -2 -32 5 -48 15 -27 19 -28 21 -10 34 24 17 55 17 82 -3z m242
-1 c-1 -14 -60 -77 -60 -65 0 8 -5 10 -12 6 -7 -4 -4 3 7 16 l20 23 -24 -13
c-24 -12 -24 -6 2 28 10 13 67 17 67 5z m1077 -29 c2 -27 1 -28 -13 -10 -17
24 -18 49 -2 44 7 -3 14 -18 15 -34z m43 6 c0 7 3 10 7 7 3 -4 12 -2 20 5 20
17 27 2 10 -22 -10 -14 -16 -17 -19 -9 -3 9 -6 8 -11 -4 -5 -12 -1 -17 12 -17
14 0 17 -7 16 -32 -1 -18 1 -43 6 -55 5 -14 5 -23 -1 -23 -6 0 -10 10 -11 23
0 19 -1 20 -8 4 -6 -18 -8 -18 -21 -2 -11 14 -11 16 1 13 8 -2 14 4 14 12 0
23 -57 15 -77 -11 l-18 -21 0 24 c0 13 -6 30 -12 36 -16 16 5 32 41 32 18 0
22 4 18 20 -3 13 -1 18 6 13 7 -4 8 0 4 13 -7 18 -7 18 8 0 10 -13 15 -15 15
-6z m-310 -15 c0 -8 -2 -15 -4 -15 -2 0 -6 7 -10 15 -3 8 -1 15 4 15 6 0 10
-7 10 -15z m403 0 c1 -5 -6 -11 -15 -13 -11 -2 -18 3 -18 13 0 17 30 18 33 0z
m-1094 -19 l23 -13 -31 -23 c-23 -16 -40 -21 -61 -16 -23 4 -33 0 -48 -19 -17
-21 -21 -23 -32 -10 -12 15 -5 70 10 80 5 3 13 -9 18 -27 l8 -33 19 30 c32 49
50 55 94 31z m367 1 c41 -16 164 -90 164 -100 0 -4 -19 4 -41 19 -44 28 -62
28 -134 1 -30 -11 -81 -15 -191 -15 -137 0 -153 -2 -187 -22 -42 -25 -42 -28
-2 -112 22 -44 22 -48 5 -48 -11 0 -20 10 -24 25 -5 19 -13 25 -35 25 -22 0
-30 -6 -35 -25 -4 -14 -11 -25 -16 -25 -5 0 0 21 12 48 23 54 34 67 25 35 -4
-18 -1 -23 15 -23 15 0 18 4 13 23 -4 12 -10 25 -14 29 -10 11 -84 -11 -99
-30 -12 -15 -12 -13 -6 13 18 80 48 95 187 95 77 0 123 6 183 23 53 15 106 22
161 22 l82 0 -32 17 c-18 9 -50 18 -72 18 -32 1 -36 3 -20 10 25 11 24 11 61
-3z m354 -7 c0 -5 -8 -10 -17 -10 -15 0 -16 2 -3 10 19 12 20 12 20 0z m-1055
-16 c13 -5 14 -8 3 -15 -10 -7 -8 -9 7 -10 17 -1 16 -2 -5 -9 -14 -4 -38 -8
-55 -9 l-30 0 28 24 c32 28 29 27 52 19z m159 -48 c-6 -24 -34 -38 -34 -16 0
11 32 51 37 46 2 -2 1 -15 -3 -30z m-122 -16 c40 0 32 -8 -13 -14 -19 -3 -41
-7 -50 -11 -10 -3 -20 -2 -24 4 -3 7 3 11 15 11 14 0 19 4 14 12 -5 8 -2 9 10
5 10 -4 32 -7 48 -7z m1388 -10 c-6 -11 -16 -20 -22 -20 -6 0 -3 9 7 20 10 11
20 20 22 20 2 0 -1 -9 -7 -20z m-1390 -30 c0 -5 6 -7 14 -4 8 3 16 2 19 -3 3
-4 -6 -9 -20 -10 -14 0 -30 -6 -35 -11 -7 -7 4 -9 33 -6 l44 5 -37 -14 c-48
-18 -98 -28 -98 -20 0 10 62 73 72 73 4 0 8 -4 8 -10z m407 -23 c16 -16 16
-18 1 -34 -16 -15 -15 -19 3 -54 23 -46 23 -50 4 -43 -8 3 -19 21 -25 40 -6
19 -17 34 -23 34 -7 0 -4 5 6 11 14 8 25 49 13 49 -2 0 -11 3 -20 6 -14 5 -16
-4 -16 -65 0 -50 -4 -71 -12 -71 -9 0 -13 21 -13 73 l0 73 33 -1 c17 0 40 -8
49 -18z m153 6 c0 -11 -4 -11 -20 -3 -19 10 -20 8 -20 -60 0 -56 -3 -70 -15
-70 -12 0 -15 14 -15 70 0 64 -9 86 -25 60 -9 -15 -25 -12 -19 4 8 20 114 19
114 -1z m188 -18 c26 -31 24 -67 -6 -96 -22 -21 -62 -34 -62 -20 0 6 8 11 18
11 27 0 42 20 42 55 0 39 -18 63 -50 67 -25 3 -25 2 -25 -65 0 -44 -4 -67 -12
-67 -7 0 -13 26 -15 75 l-3 74 44 -3 c34 -3 51 -10 69 -31z m82 -31 c0 -51 4
-65 18 -73 14 -7 25 -6 42 6 20 14 22 22 18 74 -3 38 0 59 7 59 7 0 9 -22 5
-66 -4 -49 -11 -70 -25 -80 -27 -20 -42 -18 -70 11 -20 20 -25 34 -25 78 0 41
4 54 15 54 12 0 15 -14 15 -63z m254 60 c9 -3 16 -13 16 -22 0 -13 -3 -13 -19
2 -13 11 -27 15 -40 11 -32 -10 -25 -33 17 -52 47 -23 56 -62 18 -83 -31 -16
-76 0 -76 27 0 15 1 15 13 1 21 -28 67 -27 67 0 0 11 -14 25 -35 35 -44 21
-53 42 -30 67 18 20 41 25 69 14z m150 -5 c57 -26 55 -115 -4 -139 -23 -9 -34
-9 -58 4 -49 25 -57 81 -17 121 27 28 42 30 79 14z m111 -65 c0 -59 -3 -74
-15 -74 -12 0 -15 15 -15 73 0 58 3 73 15 74 12 1 15 -13 15 -73z m89 26 c21
-27 40 -50 43 -50 3 0 3 23 1 50 -4 39 -2 50 9 50 10 0 12 -6 8 -19 -3 -10 -6
-45 -6 -78 l-1 -58 -27 34 c-14 19 -36 46 -48 60 l-22 26 -1 -52 c0 -32 5 -53
13 -56 7 -3 5 -6 -6 -6 -16 -1 -18 7 -15 74 1 41 5 75 8 75 3 0 23 -22 44 -50z"/>
<path d="M818 1701 c-4 -13 -2 -33 3 -43 15 -28 18 -19 10 27 -6 35 -8 37 -13
16z"/>
<path d="M850 1711 c0 -5 5 -13 10 -16 6 -3 10 -2 10 4 0 5 -4 13 -10 16 -5 3
-10 2 -10 -4z"/>
<path d="M1837 1640 c51 -48 70 -52 48 -10 -16 32 -43 50 -72 50 -13 0 -8 -10
24 -40z"/>
<path d="M1951 1633 c22 -45 29 -52 29 -29 0 8 -11 28 -25 43 l-24 28 20 -42z"/>
<path d="M1725 1640 c-3 -6 1 -7 9 -4 18 7 21 14 7 14 -6 0 -13 -4 -16 -10z"/>
<path d="M1635 1535 c-16 -8 -41 -14 -54 -15 -21 0 -19 -4 20 -34 l44 -34 8
36 c4 19 12 41 18 49 14 16 3 16 -36 -2z"/>
<path d="M1862 1439 c2 -7 10 -15 17 -17 8 -3 12 1 9 9 -2 7 -10 15 -17 17 -8
3 -12 -1 -9 -9z"/>
<path d="M2020 1371 c0 -17 4 -19 32 -10 18 5 34 9 36 9 2 0 0 5 -3 10 -3 6
-19 10 -36 10 -22 0 -29 -5 -29 -19z m47 3 c-3 -3 -12 -4 -19 -1 -8 3 -5 6 6
6 11 1 17 -2 13 -5z"/>
<path d="M1340 1346 c-78 -22 -77 -26 5 -22 44 2 96 10 115 19 l35 15 -55 0
c-30 0 -75 -5 -100 -12z"/>
<path d="M981 1284 c-41 -17 -38 -23 7 -17 18 3 32 11 32 19 0 17 3 17 -39 -2z"/>
<path d="M1968 1263 c-27 -7 -33 -50 -15 -89 14 -27 22 -34 46 -34 41 0 56 29
41 76 -10 28 -38 58 -52 53 -2 -1 -11 -3 -20 -6z"/>
</g>
</svg>
